# xmcd CD database file
#
# Track frame offsets:
#	150
#	11820
#	23157
#	42322
#	59389
#	71510
#	85886
#	110476
#	146028
#	159368
#	172569
#	183932
#	196506
#	221670
#
# Disc length: 3281 seconds
#
# Revision: 0
# Processed by: cddbd v1.4PL0 Copyright (c) Steve Scherf et al.
# Submitted via: Feurio! 1.65 - http://www.feurio.com
#
DISCID=b40ccf0e
DTITLE=Canned Heat - Future Blues (dig. rem.)
DYEAR=1970
DGENRE=Blues Rock
TTITLE0=Sugar Bee
TTITLE1=Shake It And Break It
TTITLE2=That's All Right Mama
TTITLE3=My Time Ain't Long
TTITLE4=Skat
TTITLE5=Let's Work Together
TTITLE6=London Blues
TTITLE7=So Sad (The World's In A Tangle)
TTITLE8=Future Blues
TTITLE9=I'm Her Man
TTITLE10=Wooley Bully
TTITLE11=Let's Work Together
TTITLE12=It's All Right
TTITLE13=Human Condition
EXTD=
EXTT0=
EXTT1=
EXTT2=
EXTT3=
EXTT4=
EXTT5=
EXTT6=
EXTT7=
EXTT8=
EXTT9=
EXTT10=
EXTT11=Single mono version
EXTT12=w. John Lee Hooker
EXTT13=
PLAYORDER=
